<svg width="21" height="20" viewBox="0 0 21 20" fill="none" xmlns="http://www.w3.org/2000/svg">
<path fill-rule="evenodd" clip-rule="evenodd" d="M13.5773 0.0844519C13.7715 -0.0103926 13.9964 -0.0260287 14.2024 0.0409805C14.4084 0.10799 14.5787 0.25216 14.676 0.441801L17.0797 5.13748C18.5573 5.24841 19.4845 5.53216 20.083 6.25433C21.0659 7.44264 20.6738 9.23046 19.8897 12.8071L19.4212 14.9406C18.8893 17.3652 18.6239 18.577 17.7229 19.2885C16.822 20 15.5529 20 13.0149 20H8.31883C5.78078 20 4.51175 20 3.61186 19.2885C2.70978 18.577 2.44331 17.3652 1.91254 14.9406L1.44403 12.8071C0.6599 9.23046 0.266742 7.44264 1.25073 6.25433C1.8492 5.53109 2.7764 5.24841 4.25402 5.13748L6.65774 0.441801C6.75578 0.253665 6.92598 0.111004 7.13124 0.0449065C7.3365 -0.0211914 7.56019 -0.00536796 7.75356 0.0889285C7.94693 0.183225 8.09431 0.348351 8.16358 0.548321C8.23284 0.748292 8.21838 0.966898 8.12334 1.1565L6.11933 5.07134C6.64682 5.06601 7.22236 5.06601 7.85141 5.06601H13.4823C14.1114 5.06601 14.6869 5.06601 15.2144 5.07134L13.2104 1.1565C13.1133 0.966666 13.0975 0.746961 13.1663 0.545715C13.2351 0.344469 13.383 0.179232 13.5773 0.0844519ZM5.47936 10.3996C5.47936 10.1874 5.56565 9.9839 5.71926 9.83387C5.87287 9.68383 6.0812 9.59954 6.29844 9.59954H15.0353C15.2525 9.59954 15.4608 9.68383 15.6145 9.83387C15.7681 9.9839 15.8544 10.1874 15.8544 10.3996C15.8544 10.6118 15.7681 10.8152 15.6145 10.9653C15.4608 11.1153 15.2525 11.1996 15.0353 11.1996H6.29844C6.0812 11.1996 5.87287 11.1153 5.71926 10.9653C5.56565 10.8152 5.47936 10.6118 5.47936 10.3996Z" fill="black"/>
</svg>