<svg width="20" height="20" viewBox="0 0 20 20" fill="none" xmlns="http://www.w3.org/2000/svg">
<path fill-rule="evenodd" clip-rule="evenodd" d="M0.15439 2.05C0 2.51245 0 3.08523 0 4.23077C0 5.37631 0 5.94909 0.15439 6.41154C0.453101 7.30629 1.15525 8.00844 2.05 8.30715C2.51246 8.46154 3.08523 8.46154 4.23077 8.46154C5.37632 8.46154 5.94909 8.46154 6.41154 8.30715C7.30629 8.00844 8.00844 7.30629 8.30715 6.41154C8.46154 5.94909 8.46154 5.37631 8.46154 4.23077C8.46154 3.08523 8.46154 2.51245 8.30715 2.05C8.00844 1.15525 7.30629 0.453101 6.41154 0.15439C5.94909 0 5.37632 0 4.23077 0C3.08523 0 2.51246 0 2.05 0.15439C1.15525 0.453101 0.453101 1.15525 0.15439 2.05ZM11.6929 2.05C11.5385 2.51245 11.5385 3.08523 11.5385 4.23077C11.5385 5.37631 11.5385 5.94909 11.6929 6.41154C11.9916 7.30629 12.6937 8.00844 13.5885 8.30715C14.0509 8.46154 14.6237 8.46154 15.7693 8.46154C16.9148 8.46154 17.4876 8.46154 17.95 8.30715C18.8448 8.00844 19.5469 7.30629 19.8456 6.41154C20 5.94909 20 5.37631 20 4.23077C20 3.08523 20 2.51245 19.8456 2.05C19.5469 1.15525 18.8448 0.453101 17.95 0.15439C17.4876 0 16.9148 0 15.7693 0C14.6237 0 14.0509 0 13.5885 0.15439C12.6937 0.453101 11.9916 1.15525 11.6929 2.05ZM0 15.7692C0 14.6237 0 14.0509 0.15439 13.5885C0.453101 12.6937 1.15525 11.9916 2.05 11.6929C2.51246 11.5385 3.08523 11.5385 4.23077 11.5385C5.37632 11.5385 5.94909 11.5385 6.41154 11.6929C7.30629 11.9916 8.00844 12.6937 8.30715 13.5885C8.46154 14.0509 8.46154 14.6237 8.46154 15.7692C8.46154 16.9148 8.46154 17.4876 8.30715 17.95C8.00844 18.8448 7.30629 19.5469 6.41154 19.8456C5.94909 20 5.37632 20 4.23077 20C3.08523 20 2.51246 20 2.05 19.8456C1.15525 19.5469 0.453101 18.8448 0.15439 17.95C0 17.4876 0 16.9148 0 15.7692ZM11.6929 13.5885C11.5385 14.0509 11.5385 14.6237 11.5385 15.7692C11.5385 16.9148 11.5385 17.4876 11.6929 17.95C11.9916 18.8448 12.6937 19.5469 13.5885 19.8456C14.0509 20 14.6237 20 15.7693 20C16.9148 20 17.4876 20 17.95 19.8456C18.8448 19.5469 19.5469 18.8448 19.8456 17.95C20 17.4876 20 16.9148 20 15.7692C20 14.6237 20 14.0509 19.8456 13.5885C19.5469 12.6937 18.8448 11.9916 17.95 11.6929C17.4876 11.5385 16.9148 11.5385 15.7693 11.5385C14.6237 11.5385 14.0509 11.5385 13.5885 11.6929C12.6937 11.9916 11.9916 12.6937 11.6929 13.5885Z" fill="black"/>
</svg>