<svg width="20" height="20" viewBox="0 0 20 20" fill="none" xmlns="http://www.w3.org/2000/svg">
<path fill-rule="evenodd" clip-rule="evenodd" d="M0.52 5.823C0 6.77 0 7.915 0 10.203V11.725C0 15.625 -1.19209e-07 17.576 1.172 18.788C2.343 20 4.229 20 8 20H12C15.771 20 17.657 20 18.828 18.788C20 17.576 20 15.626 20 11.725V10.204C20 7.915 20 6.771 19.48 5.823C18.962 4.874 18.013 4.286 16.116 3.108L14.116 1.867C12.111 0.622 11.108 0 10 0C8.892 0 7.89 0.622 5.884 1.867L3.884 3.108C1.987 4.286 1.039 4.874 0.52 5.823Z" fill="black"/>
</svg>